<svg xmlns="http://www.w3.org/2000/svg" xmlns:xlink="http://www.w3.org/1999/xlink" xmlns:inkscape="http://www.inkscape.org/namespaces/inkscape" version="1.1" width="399.12245" height="285.23814" viewBox="0 0 399.12245 285.23814">
<defs>
<clipPath id="clip_0">
<path transform="matrix(1,0,0,-1,0,285.23814)" d="M41.778127 38.121877H376.57814V259.88188H41.778127Z"/>
</clipPath>
<clipPath id="clip_1">
<path transform="matrix(1,0,0,-1,361.35997,58.660448)" d="M-10.5-10.5H10.5V10.5H-10.5Z"/>
</clipPath>
<clipPath id="clip_2">
<path transform="matrix(1,0,0,-1,133.98242,137.93859)" d="M-10.5-10.5H10.5V10.5H-10.5Z"/>
</clipPath>
<clipPath id="clip_3">
<path transform="matrix(1,0,0,-1,65.9482,157.75812)" d="M-10.5-10.5H10.5V10.5H-10.5Z"/>
</clipPath>
<clipPath id="clip_4">
<path transform="matrix(1,0,0,-1,56.996324,237.03626)" d="M-10.5-10.5H10.5V10.5H-10.5Z"/>
</clipPath>
<clipPath id="clip_5">
<path transform="matrix(1,0,0,-1,151.88617,58.660448)" d="M-10.5-10.5H10.5V10.5H-10.5Z"/>
</clipPath>
<clipPath id="clip_6">
<path transform="matrix(1,0,0,-1,0,285.23814)" d="M41.778127 38.121877H376.57814V259.88188H41.778127Z"/>
</clipPath>
<clipPath id="clip_7">
<path transform="matrix(1,0,0,-1,0,285.23814)" d="M41.778127 38.121877H376.57814V259.88188H41.778127Z"/>
</clipPath>
<clipPath id="clip_8">
<path transform="matrix(1,0,0,-1,0,285.23814)" d="M41.778127 38.121877H376.57814V259.88188H41.778127Z"/>
</clipPath>
<clipPath id="clip_9">
<path transform="matrix(1,0,0,-1,0,285.23814)" d="M41.778127 38.121877H376.57814V259.88188H41.778127Z"/>
</clipPath>
<clipPath id="clip_10">
<path transform="matrix(1,0,0,-1,0,285.23814)" d="M41.778127 38.121877H376.57814V259.88188H41.778127Z"/>
</clipPath>
<clipPath id="clip_11">
<path transform="matrix(1,0,0,-1,0,285.23814)" d="M41.778127 38.121877H376.57814V259.88188H41.778127Z"/>
</clipPath>
<clipPath id="clip_12">
<path transform="matrix(1,0,0,-1,0,285.23814)" d="M41.778127 38.121877H376.57814V259.88188H41.778127Z"/>
</clipPath>
<clipPath id="clip_13">
<path transform="matrix(1,0,0,-1,0,285.23814)" d="M41.778127 38.121877H376.57814V259.88188H41.778127Z"/>
</clipPath>
<clipPath id="clip_14">
<path transform="matrix(1,0,0,-1,0,285.23814)" d="M41.778127 38.121877H376.57814V259.88188H41.778127Z"/>
</clipPath>
<clipPath id="clip_15">
<path transform="matrix(1,0,0,-1,0,285.23814)" d="M41.778127 38.121877H376.57814V259.88188H41.778127Z"/>
</clipPath>
<clipPath id="clip_16">
<path transform="matrix(1,0,0,-1,0,285.23814)" d="M41.778127 38.121877H376.57814V259.88188H41.778127Z"/>
</clipPath>
<clipPath id="clip_17">
<path transform="matrix(1,0,0,-1,0,285.23814)" d="M41.778127 38.121877H376.57814V259.88188H41.778127Z"/>
</clipPath>
<clipPath id="clip_18">
<path transform="matrix(1,0,0,-1,0,285.23814)" d="M41.778127 38.121877H376.57814V259.88188H41.778127Z"/>
</clipPath>
<clipPath id="clip_19">
<path transform="matrix(1,0,0,-1,0,285.23814)" d="M41.778127 38.121877H376.57814V259.88188H41.778127Z"/>
</clipPath>
<clipPath id="clip_20">
<path transform="matrix(1,0,0,-1,0,285.23814)" d="M41.778127 38.121877H376.57814V259.88188H41.778127Z"/>
</clipPath>
</defs>
<path transform="matrix(1,0,0,-1,0,285.23814)" d="M0 0H399.12245V285.23814H0Z" fill="#ffffff"/>
<path transform="matrix(1,0,0,-1,0,285.23814)" d="M41.778127 38.121877H376.57814V259.88188H41.778127Z" fill="#ffffff"/>
<g clip-path="url(#clip_0)">
<g clip-path="url(#clip_1)">
<path transform="matrix(1,0,0,-1,361.35997,58.660448)" d="M-3-3 3 3M-3 3 3-3" fill="#e69f00"/>
<path transform="matrix(1,0,0,-1,361.35997,58.660448)" stroke-width="1.5" stroke-linecap="butt" stroke-linejoin="round" fill="none" stroke="#e69f00" d="M-3-3 3 3M-3 3 3-3"/>
</g>
<g clip-path="url(#clip_2)">
<path transform="matrix(1,0,0,-1,133.98242,137.93859)" d="M-3-3 3 3M-3 3 3-3" fill="#e69f00"/>
<path transform="matrix(1,0,0,-1,133.98242,137.93859)" stroke-width="1.5" stroke-linecap="butt" stroke-linejoin="round" fill="none" stroke="#e69f00" d="M-3-3 3 3M-3 3 3-3"/>
</g>
<g clip-path="url(#clip_3)">
<path transform="matrix(1,0,0,-1,65.9482,157.75812)" d="M-3-3 3 3M-3 3 3-3" fill="#e69f00"/>
<path transform="matrix(1,0,0,-1,65.9482,157.75812)" stroke-width="1.5" stroke-linecap="butt" stroke-linejoin="round" fill="none" stroke="#e69f00" d="M-3-3 3 3M-3 3 3-3"/>
</g>
<g clip-path="url(#clip_4)">
<path transform="matrix(1,0,0,-1,56.996324,237.03626)" d="M-3-3 3 3M-3 3 3-3" fill="#e69f00"/>
<path transform="matrix(1,0,0,-1,56.996324,237.03626)" stroke-width="1.5" stroke-linecap="butt" stroke-linejoin="round" fill="none" stroke="#e69f00" d="M-3-3 3 3M-3 3 3-3"/>
</g>
<g clip-path="url(#clip_5)">
<path transform="matrix(1,0,0,-1,151.88617,58.660448)" d="M-3-3 3 3M-3 3 3-3" fill="#e69f00"/>
<path transform="matrix(1,0,0,-1,151.88617,58.660448)" stroke-width="1.5" stroke-linecap="butt" stroke-linejoin="round" fill="none" stroke="#e69f00" d="M-3-3 3 3M-3 3 3-3"/>
</g>
</g>
<g clip-path="url(#clip_6)">
<path transform="matrix(1,0,0,-1,0,285.23814)" stroke-width=".3" stroke-linecap="butt" stroke-dasharray="1.11,.48" stroke-linejoin="round" fill="none" stroke="#b0b0b0" stroke-opacity=".7" d="M54.794149 38.121877V259.88188"/>
</g>
<path transform="matrix(1,0,0,-1,0,285.23814)" d="M54.794149 38.121877V41.621877" fill="#191919"/>
<path transform="matrix(1,0,0,-1,0,285.23814)" stroke-width=".8" stroke-linecap="butt" stroke-linejoin="round" fill="none" stroke="#191919" d="M54.794149 38.121877V41.621877"/>
<text fill="#191919" xml:space="preserve" transform="matrix(1 0 -0 1 50.973836 259.74125)" font-size="12" font-family="DejaVuSerif"><tspan y="0" x="0">7</tspan></text>
<g clip-path="url(#clip_7)">
<path transform="matrix(1,0,0,-1,0,285.23814)" stroke-width=".3" stroke-linecap="butt" stroke-dasharray="1.11,.48" stroke-linejoin="round" fill="none" stroke="#b0b0b0" stroke-opacity=".7" d="M106.91194 38.121877V259.88188"/>
</g>
<path transform="matrix(1,0,0,-1,0,285.23814)" d="M106.91194 38.121877V41.621877" fill="#191919"/>
<path transform="matrix(1,0,0,-1,0,285.23814)" stroke-width=".8" stroke-linecap="butt" stroke-linejoin="round" fill="none" stroke="#191919" d="M106.91194 38.121877V41.621877"/>
<text fill="#191919" xml:space="preserve" transform="matrix(1 0 -0 1 103.09163 259.74125)" font-size="12" font-family="DejaVuSerif"><tspan y="0" x="0">8</tspan></text>
<g clip-path="url(#clip_8)">
<path transform="matrix(1,0,0,-1,0,285.23814)" stroke-width=".3" stroke-linecap="butt" stroke-dasharray="1.11,.48" stroke-linejoin="round" fill="none" stroke="#b0b0b0" stroke-opacity=".7" d="M159.02974 38.121877V259.88188"/>
</g>
<path transform="matrix(1,0,0,-1,0,285.23814)" d="M159.02974 38.121877V41.621877" fill="#191919"/>
<path transform="matrix(1,0,0,-1,0,285.23814)" stroke-width=".8" stroke-linecap="butt" stroke-linejoin="round" fill="none" stroke="#191919" d="M159.02974 38.121877V41.621877"/>
<text fill="#191919" xml:space="preserve" transform="matrix(1 0 -0 1 155.20943 259.74125)" font-size="12" font-family="DejaVuSerif"><tspan y="0" x="0">9</tspan></text>
<g clip-path="url(#clip_9)">
<path transform="matrix(1,0,0,-1,0,285.23814)" stroke-width=".3" stroke-linecap="butt" stroke-dasharray="1.11,.48" stroke-linejoin="round" fill="none" stroke="#b0b0b0" stroke-opacity=".7" d="M211.14754 38.121877V259.88188"/>
</g>
<path transform="matrix(1,0,0,-1,0,285.23814)" d="M211.14754 38.121877V41.621877" fill="#191919"/>
<path transform="matrix(1,0,0,-1,0,285.23814)" stroke-width=".8" stroke-linecap="butt" stroke-linejoin="round" fill="none" stroke="#191919" d="M211.14754 38.121877V41.621877"/>
<text fill="#191919" xml:space="preserve" transform="matrix(1 0 -0 1 203.50691 259.74125)" font-size="12" font-family="DejaVuSerif"><tspan y="0" x="0 7.6320006">10</tspan></text>
<g clip-path="url(#clip_10)">
<path transform="matrix(1,0,0,-1,0,285.23814)" stroke-width=".3" stroke-linecap="butt" stroke-dasharray="1.11,.48" stroke-linejoin="round" fill="none" stroke="#b0b0b0" stroke-opacity=".7" d="M263.26533 38.121877V259.88188"/>
</g>
<path transform="matrix(1,0,0,-1,0,285.23814)" d="M263.26533 38.121877V41.621877" fill="#191919"/>
<path transform="matrix(1,0,0,-1,0,285.23814)" stroke-width=".8" stroke-linecap="butt" stroke-linejoin="round" fill="none" stroke="#191919" d="M263.26533 38.121877V41.621877"/>
<text fill="#191919" xml:space="preserve" transform="matrix(1 0 -0 1 255.62471 259.74125)" font-size="12" font-family="DejaVuSerif"><tspan y="0" x="0 7.6320006">11</tspan></text>
<g clip-path="url(#clip_11)">
<path transform="matrix(1,0,0,-1,0,285.23814)" stroke-width=".3" stroke-linecap="butt" stroke-dasharray="1.11,.48" stroke-linejoin="round" fill="none" stroke="#b0b0b0" stroke-opacity=".7" d="M315.38313 38.121877V259.88188"/>
</g>
<path transform="matrix(1,0,0,-1,0,285.23814)" d="M315.38313 38.121877V41.621877" fill="#191919"/>
<path transform="matrix(1,0,0,-1,0,285.23814)" stroke-width=".8" stroke-linecap="butt" stroke-linejoin="round" fill="none" stroke="#191919" d="M315.38313 38.121877V41.621877"/>
<text fill="#191919" xml:space="preserve" transform="matrix(1 0 -0 1 307.7425 259.74125)" font-size="12" font-family="DejaVuSerif"><tspan y="0" x="0 7.6320006">12</tspan></text>
<g clip-path="url(#clip_12)">
<path transform="matrix(1,0,0,-1,0,285.23814)" stroke-width=".3" stroke-linecap="butt" stroke-dasharray="1.11,.48" stroke-linejoin="round" fill="none" stroke="#b0b0b0" stroke-opacity=".7" d="M367.50093 38.121877V259.88188"/>
</g>
<path transform="matrix(1,0,0,-1,0,285.23814)" d="M367.50093 38.121877V41.621877" fill="#191919"/>
<path transform="matrix(1,0,0,-1,0,285.23814)" stroke-width=".8" stroke-linecap="butt" stroke-linejoin="round" fill="none" stroke="#191919" d="M367.50093 38.121877V41.621877"/>
<text fill="#191919" xml:space="preserve" transform="matrix(1 0 -0 1 359.8603 259.74125)" font-size="12" font-family="DejaVuSerif"><tspan y="0" x="0 7.6320006">13</tspan></text>
<text fill="#191919" xml:space="preserve" transform="matrix(1 0 -0 1 114.94375 275.36625)" font-size="12" font-family="DejaVuSerif"><tspan y="0" x="0 8.6640009 15.384001 22.104 29.832 35.568 42.72 49.440004 56.22 60.036005 63.876005 71.604007 75.420009 83.64001 90.420009 98.14801 102.97201 110.70001 117.804019 122.62801 126.46802 133.18802 137.00402 144.68402 151.83603 156.66004 163.81204 167.62804 172.30805 183.70804">Accuracy in Synthetic data (%)</tspan></text>
<g clip-path="url(#clip_13)">
<path transform="matrix(1,0,0,-1,0,285.23814)" stroke-width=".3" stroke-linecap="butt" stroke-dasharray="1.11,.48" stroke-linejoin="round" fill="none" stroke="#b0b0b0" stroke-opacity=".7" d="M41.778127 50.183828H376.57814"/>
</g>
<path transform="matrix(1,0,0,-1,0,285.23814)" d="M41.778127 50.183828H45.278127" fill="#191919"/>
<path transform="matrix(1,0,0,-1,0,285.23814)" stroke-width=".8" stroke-linecap="butt" stroke-linejoin="round" fill="none" stroke="#191919" d="M41.778127 50.183828H45.278127"/>
<text fill="#191919" xml:space="preserve" transform="matrix(1 0 -0 1 22.996876 239.61679)" font-size="12" font-family="DejaVuSerif"><tspan y="0" x="0 7.6320006">30</tspan></text>
<g clip-path="url(#clip_14)">
<path transform="matrix(1,0,0,-1,0,285.23814)" stroke-width=".3" stroke-linecap="butt" stroke-dasharray="1.11,.48" stroke-linejoin="round" fill="none" stroke="#b0b0b0" stroke-opacity=".7" d="M41.778127 80.70591H376.57814"/>
</g>
<path transform="matrix(1,0,0,-1,0,285.23814)" d="M41.778127 80.70591H45.278127" fill="#191919"/>
<path transform="matrix(1,0,0,-1,0,285.23814)" stroke-width=".8" stroke-linecap="butt" stroke-linejoin="round" fill="none" stroke="#191919" d="M41.778127 80.70591H45.278127"/>
<text fill="#191919" xml:space="preserve" transform="matrix(1 0 -0 1 22.996876 209.09473)" font-size="12" font-family="DejaVuSerif"><tspan y="0" x="0 7.6320006">32</tspan></text>
<g clip-path="url(#clip_15)">
<path transform="matrix(1,0,0,-1,0,285.23814)" stroke-width=".3" stroke-linecap="butt" stroke-dasharray="1.11,.48" stroke-linejoin="round" fill="none" stroke="#b0b0b0" stroke-opacity=".7" d="M41.778127 111.228H376.57814"/>
</g>
<path transform="matrix(1,0,0,-1,0,285.23814)" d="M41.778127 111.228H45.278127" fill="#191919"/>
<path transform="matrix(1,0,0,-1,0,285.23814)" stroke-width=".8" stroke-linecap="butt" stroke-linejoin="round" fill="none" stroke="#191919" d="M41.778127 111.228H45.278127"/>
<text fill="#191919" xml:space="preserve" transform="matrix(1 0 -0 1 22.996876 178.57263)" font-size="12" font-family="DejaVuSerif"><tspan y="0" x="0 7.6320006">34</tspan></text>
<g clip-path="url(#clip_16)">
<path transform="matrix(1,0,0,-1,0,285.23814)" stroke-width=".3" stroke-linecap="butt" stroke-dasharray="1.11,.48" stroke-linejoin="round" fill="none" stroke="#b0b0b0" stroke-opacity=".7" d="M41.778127 141.75008H376.57814"/>
</g>
<path transform="matrix(1,0,0,-1,0,285.23814)" d="M41.778127 141.75008H45.278127" fill="#191919"/>
<path transform="matrix(1,0,0,-1,0,285.23814)" stroke-width=".8" stroke-linecap="butt" stroke-linejoin="round" fill="none" stroke="#191919" d="M41.778127 141.75008H45.278127"/>
<text fill="#191919" xml:space="preserve" transform="matrix(1 0 -0 1 22.996876 148.05055)" font-size="12" font-family="DejaVuSerif"><tspan y="0" x="0 7.6320006">36</tspan></text>
<g clip-path="url(#clip_17)">
<path transform="matrix(1,0,0,-1,0,285.23814)" stroke-width=".3" stroke-linecap="butt" stroke-dasharray="1.11,.48" stroke-linejoin="round" fill="none" stroke="#b0b0b0" stroke-opacity=".7" d="M41.778127 172.27216H376.57814"/>
</g>
<path transform="matrix(1,0,0,-1,0,285.23814)" d="M41.778127 172.27216H45.278127" fill="#191919"/>
<path transform="matrix(1,0,0,-1,0,285.23814)" stroke-width=".8" stroke-linecap="butt" stroke-linejoin="round" fill="none" stroke="#191919" d="M41.778127 172.27216H45.278127"/>
<text fill="#191919" xml:space="preserve" transform="matrix(1 0 -0 1 22.996876 117.52847)" font-size="12" font-family="DejaVuSerif"><tspan y="0" x="0 7.6320006">38</tspan></text>
<g clip-path="url(#clip_18)">
<path transform="matrix(1,0,0,-1,0,285.23814)" stroke-width=".3" stroke-linecap="butt" stroke-dasharray="1.11,.48" stroke-linejoin="round" fill="none" stroke="#b0b0b0" stroke-opacity=".7" d="M41.778127 202.79425H376.57814"/>
</g>
<path transform="matrix(1,0,0,-1,0,285.23814)" d="M41.778127 202.79425H45.278127" fill="#191919"/>
<path transform="matrix(1,0,0,-1,0,285.23814)" stroke-width=".8" stroke-linecap="butt" stroke-linejoin="round" fill="none" stroke="#191919" d="M41.778127 202.79425H45.278127"/>
<text fill="#191919" xml:space="preserve" transform="matrix(1 0 -0 1 22.996876 87.00638)" font-size="12" font-family="DejaVuSerif"><tspan y="0" x="0 7.6320006">40</tspan></text>
<g clip-path="url(#clip_19)">
<path transform="matrix(1,0,0,-1,0,285.23814)" stroke-width=".3" stroke-linecap="butt" stroke-dasharray="1.11,.48" stroke-linejoin="round" fill="none" stroke="#b0b0b0" stroke-opacity=".7" d="M41.778127 233.31633H376.57814"/>
</g>
<path transform="matrix(1,0,0,-1,0,285.23814)" d="M41.778127 233.31633H45.278127" fill="#191919"/>
<path transform="matrix(1,0,0,-1,0,285.23814)" stroke-width=".8" stroke-linecap="butt" stroke-linejoin="round" fill="none" stroke="#191919" d="M41.778127 233.31633H45.278127"/>
<text fill="#191919" xml:space="preserve" transform="matrix(1 0 -0 1 22.996876 56.4843)" font-size="12" font-family="DejaVuSerif"><tspan y="0" x="0 7.6320006">42</tspan></text>
<text fill="#191919" xml:space="preserve" transform="matrix(0 -1 1 0 16.325 201.44719)" font-size="12" font-family="DejaVuSerif"><tspan y="0" x="0 8.6640009 15.384001 22.104 29.832 35.568 42.72 49.440004 56.22 60.036005 63.876005 71.604007 75.420009 80.16 88.23601 95.964008 105.804 109.62 114.3 125.700008">Accuracy in IPhO (%)</tspan></text>
<g clip-path="url(#clip_20)">
<path transform="matrix(1,0,0,-1,0,285.23814)" stroke-width="1" stroke-linecap="square" stroke-linejoin="round" fill="none" stroke="#e69f00" d="M56.996309 110.961917 361.35997 249.80188"/>
</g>
<path transform="matrix(1,0,0,-1,0,285.23814)" stroke-width="1" stroke-linecap="square" stroke-miterlimit="10" stroke-linejoin="miter" fill="none" stroke="#191919" d="M41.778127 38.121877V259.88188"/>
<path transform="matrix(1,0,0,-1,0,285.23814)" stroke-width="1" stroke-linecap="square" stroke-miterlimit="10" stroke-linejoin="miter" fill="none" stroke="#191919" d="M41.778127 38.121877H376.57814"/>
<text fill="#333333" xml:space="preserve" transform="matrix(1 0 -0 1 365.35997 54.660448)" font-size="10" font-family="DejaVuSerif"><tspan y="0" x="0 6.4000008 12.800001 16.820002 20.200003">gpt-5</tspan></text>
<text fill="#333333" xml:space="preserve" transform="matrix(1 0 -0 1 137.9824 133.93859)" font-size="10" font-family="DejaVuSerif"><tspan y="0" x="0 6.4000008 12.800001 16.820002 20.200003 26.560004 29.940005 39.420007 42.620008 49.060007">gpt-5-mini</tspan></text>
<text fill="#333333" xml:space="preserve" transform="matrix(1 0 -0 1 69.94818 153.75812)" font-size="10" font-family="DejaVuSerif"><tspan y="0" x="0 6.4000008 12.800001 16.820002 20.200003 26.560004 29.940005 36.380006 42.340005 48.780008">gpt-5-nano</tspan></text>
<text fill="#333333" xml:space="preserve" transform="matrix(1 0 -0 1 60.996309 233.03626)" font-size="10" font-family="DejaVuSerif"><tspan y="0" x="0 5.6 8.8 14.76 21.2 27.600003 33.520006 36.900007 42.030008 48.050008 54.490007 60.930009 66.850009 70.87 74.25 80.61 83.79">claude-sonnet-4.5</tspan></text>
<text fill="#333333" xml:space="preserve" transform="matrix(1 0 -0 1 155.88614 54.660448)" font-size="10" font-family="DejaVuSerif"><tspan y="0" x="0 6.4000008 12.320001 21.800002 25.000002 31.440003 34.640005 38.020006 44.380006 47.560007 53.920007 57.300008 61.000009 64.200008 70.16 75.29">gemini-2.5-flash</tspan></text>
<text fill="#333333" xml:space="preserve" transform="matrix(1 0 -0 1 82.185939 19.356263)" font-size="16" font-family="DejaVuSerif"><tspan y="0" x="0 10.960001 20 30.304 36.736 47.04 56.512 62.944 68.064 77.024 82.112 91.152 99.36 104.448 110.768 121.535999 131.84 144.95999 150.04799 160.09725 169.56925 177.21724 183.13724 192.76924 200.41724 215.58524 225.12123 235.42523 244.38524">Synthetic vs IPhO Performance</tspan></text>
</svg>
